<?xml version="1.0" encoding="UTF-8" standalone="no"?>
<svg
   xmlns:dc="http://purl.org/dc/elements/1.1/"
   xmlns:cc="http://creativecommons.org/ns#"
   xmlns:rdf="http://www.w3.org/1999/02/22-rdf-syntax-ns#"
   xmlns:svg="http://www.w3.org/2000/svg"
   xmlns="http://www.w3.org/2000/svg"
   xmlns:sodipodi="http://sodipodi.sourceforge.net/DTD/sodipodi-0.dtd"
   xmlns:inkscape="http://www.inkscape.org/namespaces/inkscape"
   inkscape:version="1.0 (4035a4fb49, 2020-05-01)"
   sodipodi:docname="glyph3.svg"
   id="svg32"
   version="1.1"
   viewBox="0 0 53.88237 16.13995"
   height="16.13995mm"
   width="53.88237mm">
  <defs
     id="defs26">
    <pattern
       id="EMFhbasepattern"
       patternUnits="userSpaceOnUse"
       width="6"
       height="6"
       x="0"
       y="0" />
    <pattern
       id="EMFhbasepattern-6"
       patternUnits="userSpaceOnUse"
       width="6"
       height="6"
       x="0"
       y="0" />
    <pattern
       id="EMFhbasepattern-0"
       patternUnits="userSpaceOnUse"
       width="6"
       height="6"
       x="0"
       y="0" />
    <pattern
       id="EMFhbasepattern-5"
       patternUnits="userSpaceOnUse"
       width="6"
       height="6"
       x="0"
       y="0" />
    <pattern
       id="EMFhbasepattern-63"
       patternUnits="userSpaceOnUse"
       width="6"
       height="6"
       x="0"
       y="0" />
    <pattern
       id="EMFhbasepattern-08"
       patternUnits="userSpaceOnUse"
       width="6"
       height="6"
       x="0"
       y="0" />
  </defs>
  <sodipodi:namedview
     inkscape:window-maximized="0"
     inkscape:window-y="0"
     inkscape:window-x="192"
     inkscape:window-height="1055"
     inkscape:window-width="1424"
     showgrid="false"
     inkscape:document-rotation="0"
     inkscape:current-layer="layer1"
     inkscape:document-units="mm"
     inkscape:cy="0.0010229612"
     inkscape:cx="52.900375"
     inkscape:zoom="2.8"
     inkscape:pageshadow="2"
     inkscape:pageopacity="0.0"
     borderopacity="1.0"
     bordercolor="#666666"
     pagecolor="#ffffff"
     id="base" />
  <metadata
     id="metadata29">
    <rdf:RDF>
      <cc:Work
         rdf:about="">
        <dc:format>image/svg+xml</dc:format>
        <dc:type
           rdf:resource="http://purl.org/dc/dcmitype/StillImage" />
      </cc:Work>
    </rdf:RDF>
  </metadata>
  <g
     transform="translate(-38.379038,-151.16895)"
     id="layer1"
     inkscape:groupmode="layer"
     inkscape:label="Layer 1">
    <path
       id="path294"
       d="m 80.835888,166.7654 c -0.409649,-0.45265 -0.479275,-0.90248 -0.417984,-2.7004 0.04045,-1.18651 0.183647,-2.36302 0.318225,-2.61448 0.346977,-0.64834 0.303353,-2.17957 -0.07282,-2.55574 -0.469736,-0.46973 -1.125582,-0.38645 -1.666875,0.21167 -0.26339,0.29104 -0.616754,0.52917 -0.785257,0.52917 -0.1685,0 -0.648573,0.35718 -1.066826,0.79375 -0.418253,0.43656 -0.902647,0.79375 -1.076431,0.79375 -0.173784,0 -0.633817,0.41671 -1.022297,0.92604 -0.885711,1.16122 -1.887585,1.26225 -2.280081,0.2299 -0.164926,-0.43378 -0.197197,-2.30338 -0.08563,-4.96093 l 0.179036,-4.26481 0.904772,-0.85989 c 0.514344,-0.48884 1.183841,-0.8599 1.551487,-0.8599 0.634217,0 0.644329,0.0345 0.523288,1.78594 -0.06789,0.98227 -0.196898,2.41102 -0.286689,3.175 -0.149355,1.27073 -0.117777,1.38906 0.370649,1.38906 0.293653,0 1.045898,-0.34133 1.671656,-0.75851 0.625758,-0.41719 1.574475,-0.89945 2.108258,-1.0717 0.533784,-0.17225 1.161608,-0.60483 1.395164,-0.96128 0.575196,-0.87786 1.662057,-0.87534 1.996623,0.005 0.15159,0.39871 0.159467,2.15638 0.02024,4.51669 -0.125354,2.12518 -0.1641,4.56777 -0.0861,5.42797 0.157382,1.73563 -0.139526,2.3672 -1.112835,2.3672 -0.32343,0 -0.809239,-0.24441 -1.079577,-0.54313 z m -26.310676,-3.28614 c -0.170992,-0.44974 -0.20746,-1.94509 -0.09757,-4.0007 0.117992,-2.20713 0.0854,-3.28253 -0.09948,-3.28253 -0.151228,0 -1.407951,1.12748 -2.792717,2.50551 -2.847036,2.83319 -3.250129,2.88948 -2.856416,0.39887 0.205169,-1.29789 0.365795,-1.55077 1.777727,-2.79869 0.853699,-0.75453 1.969905,-1.80135 2.480458,-2.32628 0.510553,-0.52492 1.031903,-0.95441 1.158557,-0.95441 0.126654,0 0.691537,-0.41672 1.255296,-0.92604 0.56376,-0.50932 1.206215,-0.92604 1.427679,-0.92604 0.668387,0 0.922561,1.14316 0.599109,2.69452 -0.161289,0.77359 -0.319107,3.14674 -0.350709,5.27368 -0.0316,2.12694 -0.165048,4.05942 -0.29655,4.2944 -0.131502,0.23498 -0.620074,0.50344 -1.085715,0.59656 -0.747987,0.1496 -0.878432,0.0857 -1.119672,-0.54885 z m -15.150128,-2.34588 c -1.106444,-0.98477 -1.311884,-2.03145 -0.511742,-2.60724 0.264244,-0.19015 0.553855,-0.54286 0.64358,-0.7838 0.08973,-0.24094 0.527003,-0.51799 0.97173,-0.61567 0.444726,-0.0977 0.872122,-0.28039 0.949768,-0.40602 0.250403,-0.40517 1.716977,0.28548 1.716977,0.80857 0,0.26822 0.119062,0.56125 0.264583,0.65119 0.145521,0.0899 0.264584,0.68686 0.264584,1.3265 0,2.46222 -2.358165,3.35429 -4.29948,1.62647 z m 25.562142,0.18568 c -0.09616,-0.27105 -0.410067,-0.75441 -0.697555,-1.07413 -0.287489,-0.31972 -0.61105,-1.03409 -0.719024,-1.5875 -0.107976,-0.5534 -0.241969,-1.16564 -0.297765,-1.36053 -0.05579,-0.19489 0.210003,-0.59316 0.590659,-0.88505 0.6365,-0.48807 0.753456,-0.49898 1.455832,-0.13577 1.52377,0.78798 1.756567,1.28028 1.595758,3.37464 -0.157834,2.05557 -0.280257,2.36354 -0.752015,1.89178 -0.222281,-0.22228 -0.402418,-0.22743 -0.653917,-0.0187 -0.261895,0.21736 -0.390054,0.16709 -0.521973,-0.20473 z m 24.029516,-0.97043 c -0.760568,-0.80959 -0.729305,-1.55045 0.107382,-2.5448 0.811675,-0.96462 1.551627,-1.03629 2.258361,-0.21873 1.278811,1.47933 1.232995,2.70776 -0.111061,2.97792 -0.466347,0.0937 -1.034468,0.22218 -1.262494,0.28543 -0.228023,0.0633 -0.674508,-0.16167 -0.992188,-0.49982 z"
       style="fill:#000000;stroke-width:0.264583" />
  </g>
</svg>
