<?xml version="1.0" encoding="utf-8"?>
<svg xmlns="http://www.w3.org/2000/svg" version="1.1" viewBox="0 0 219 27">
	<title>Runic glyph, arranged in a row.</title>
	<path d="m 168.4728,27.121613 c -0.081,-0.212 -0.204,-0.233 -0.561,-0.098 -0.348,0.133 -0.532,0.107 -0.768,-0.107 -0.187,-0.169 -0.499,-0.247 -0.784,-0.195 -0.881,0.159 -1.52,-0.781 -1.387,-2.04 0.026,-0.247 0.779,-0.716 1.151,-0.716 0.284,0 0.829,-0.791 0.926,-1.343 0.052,-0.295 0.13,-2.51 0.173,-4.922 0.043,-2.412 0.104,-4.538 0.135,-4.724 0.09,-0.535 -0.301,-0.527 -0.861,0.017 -0.283,0.275 -0.715,0.604 -0.962,0.731 -0.246,0.127 -0.629,0.51 -0.851,0.851 -0.223,0.34 -0.485,0.619 -0.582,0.619 -0.098,0 -0.178,0.161 -0.178,0.358 0,0.197 -0.081,0.358 -0.18,0.358 -0.099,0 -0.355,0.201 -0.569,0.447 -0.214,0.247 -0.561,0.448 -0.77,0.448 -0.229,0 -0.711,0.358 -1.204,0.895 -0.452,0.492 -0.938,0.895 -1.081,0.895 -0.287,0 -1.013,0.643 -1.306,1.159 -0.141,0.246 -0.307,0.3 -0.657,0.212 -0.603,-0.151 -0.775,-0.868 -0.439,-1.825 0.137,-0.39 0.221,-0.991 0.187,-1.336 -0.224,-2.257 -0.304,-7.4960002 -0.151,-9.9350002 0.115,-1.827 -0.089,-2.467 -0.815,-2.566 -0.619,-0.084 -1.155,-0.633 -1.429,-1.465 -0.205,-0.621 -0.194,-0.796 0.088,-1.421 0.489,-1.08600001 0.739,-1.23100001 2.021,-1.17800001 0.618,0.025 1.175,0.098 1.238,0.161 0.186,0.186 1.108,0.132 1.457,-0.086 0.245,-0.154 0.559,-0.133 1.319,0.088 0.825,0.24 1.042,0.39 1.262,0.87300001 0.146,0.32 0.248,0.972 0.227,1.448 -0.031,0.681 -0.142,0.96 -0.522,1.313 -0.266,0.247 -0.593,0.406 -0.726,0.355 -0.133,-0.051 -0.379,0.007 -0.547,0.13 -0.245,0.18 -0.317,0.587 -0.367,2.091 -0.251,7.4760002 -0.252,7.1490002 0.027,7.1490002 0.533,0 1.611,-0.708 2.298,-1.508 0.387,-0.45 0.799,-0.819 0.915,-0.819 0.191,0 0.647,-0.372 2.085,-1.7030002 0.264,-0.245 0.589,-0.445 0.721,-0.445 0.296,0 1.394,-0.982 1.394,-1.247 0,-0.106 0.204,-0.286 0.455,-0.4 0.387,-0.177 0.509,-0.153 0.823,0.161 0.34,0.34 0.376,0.635 0.451,3.7470002 0.044,1.857 0.106,4.389 0.136,5.625 0.03,1.261 0.146,2.42 0.263,2.639 0.167,0.312 0.153,0.476 -0.069,0.814 -0.153,0.234 -0.23,0.549 -0.171,0.702 0.058,0.153 0.022,0.581 -0.08,0.953 -0.133,0.479 -0.13,0.744 0.009,0.911 0.265,0.32 1.034,0.299 1.16,-0.031 0.087,-0.226 0.186,-0.209 0.631,0.108 0.423,0.301 0.517,0.488 0.474,0.935 -0.034,0.339 -0.195,0.63 -0.413,0.741 -0.197,0.101 -0.479,0.262 -0.626,0.358 -0.148,0.096 -0.461,0.201 -0.695,0.233 -0.631,0.087 -1.223,0.595 -1.4,1.202 -0.169,0.583 -0.708,0.819 -0.875,0.383 z m 10.793,-0.645 c -0.313,-0.879 -0.312,-0.901 0.092,-1.746 0.224,-0.47 0.529,-0.857 0.677,-0.859 0.147,-0.003 0.389,-0.082 0.537,-0.177 0.147,-0.094 0.349,-0.172 0.447,-0.174 0.204,-0.003 0.219,-0.303 0.3,-5.766 0.065,-4.43 0.024,-4.614 -0.91,-4.063 -0.304,0.18 -0.553,0.42 -0.553,0.533 0,0.113 -0.475,0.418 -1.056,0.679 -0.58,0.26 -1.101,0.593 -1.158,0.74 -0.056,0.147 -0.252,0.267 -0.436,0.267 -0.184,0 -0.881,0.524 -1.55,1.163 -1.866,1.785 -2.015,1.654 -2.046,-1.79 -0.038,-4.064 -0.168,-9.4330002 -0.248,-10.1850002 -0.077,-0.73 -0.558,-1.261 -0.991,-1.095 -0.352,0.135 -1.32,-0.379 -1.702,-0.904 -0.448,-0.615 -0.256,-1.466 0.387,-1.719 0.262,-0.103 0.623,-0.263 0.803,-0.357 0.199,-0.10300001 0.41,-0.10500001 0.537,-0.007 0.331,0.258 1.005,0.377 1.116,0.198 0.055,-0.09 0.28,-0.118 0.499,-0.063 0.22,0.055 0.636,0.01 0.925,-0.1 0.29,-0.11000001 0.55,-0.12800001 0.58,-0.041 0.057,0.171 1.419,0.141 2.002,-0.044 0.637,-0.202 1.085,0.20100001 1.085,0.97600001 0,0.88 -0.274,1.616 -0.601,1.616 -0.138,0 -0.356,0.127 -0.485,0.283 -0.168,0.202 -0.401,0.25 -0.83,0.17 -0.685,-0.129 -0.88,0.127 -0.62,0.814 0.09,0.239 0.103,0.916 0.028,1.508 -0.378,3.008 -0.565,5.3170002 -0.463,5.7220002 0.081,0.323 0.234,0.453 0.531,0.453 0.623,0 1.503,-0.348 1.614,-0.639 0.054,-0.14 0.259,-0.256 0.456,-0.256 0.197,0 0.623,-0.261 0.948,-0.581 0.324,-0.32 0.931,-0.815 1.348,-1.0990002 0.417,-0.284 0.759,-0.59 0.759,-0.68 0,-0.328 0.998,-1.029 1.472,-1.035 0.904,-0.01 1.102,0.718 1.17,4.2900002 0.033,1.723 0.09,3.898 0.128,4.833 0.037,0.936 0.094,2.701 0.126,3.923 0.04,1.576 0.122,2.244 0.281,2.297 0.123,0.042 0.224,0.193 0.224,0.337 0,0.196 0.145,0.237 0.582,0.163 0.783,-0.133 1.215,0.238 1.337,1.146 0.074,0.555 0.019,0.821 -0.224,1.09 -0.641,0.709 -2.05,1.15 -2.313,0.724 -0.057,-0.091 -0.404,-0.123 -0.772,-0.071 -0.845,0.119 -1.388,0.124 -2.24,0.023 -0.429,-0.051 -0.748,0.006 -0.872,0.156 -0.353,0.426 -0.6,0.25 -0.922,-0.654 z m 10.829,0.307 c -0.336,-0.405 -0.432,-1.177 -0.224,-1.808 0.23,-0.694 0.529,-0.884 1.432,-0.906 0.556,-0.013 0.631,-0.077 0.753,-0.641 0.207,-0.951 0.152,-7.032 -0.066,-7.294 -0.309,-0.374 -0.801,-0.253 -1.277,0.313 -0.249,0.295 -0.6,0.537 -0.78,0.537 -0.18,0 -0.729,0.348 -1.22,0.773 -1.163,1.01 -1.429,1.097 -1.875,0.619 -0.738,-0.792 -0.323,-3.358 0.599,-3.709 0.242,-0.092 0.495,-0.258 0.564,-0.369 0.069,-0.111 0.238,-0.159 0.377,-0.106 0.139,0.053 0.351,-0.062 0.473,-0.256 0.121,-0.194 0.312,-0.353 0.424,-0.353 0.111,0 0.301,-0.118 0.421,-0.263 0.12,-0.144 0.271,-0.251 0.335,-0.237 0.065,0.014 0.319,-0.063 0.565,-0.17 0.246,-0.108 0.594,-0.242 0.773,-0.299 0.284,-0.09 0.324,-0.311 0.315,-1.76 -0.005,-0.9110002 0.039,-2.4870002 0.099,-3.5020002 0.103,-1.753 0.088,-1.867 -0.302,-2.282 -0.271,-0.289 -0.607,-0.437 -0.99,-0.437 -0.507,0 -0.627,-0.098 -0.957,-0.781 -0.431,-0.89 -0.36,-1.246 0.381,-1.899 0.276,-0.244 0.502,-0.546 0.502,-0.671 0,-0.29500001 0.507,-0.28300001 1.065,0.026 0.374,0.208 0.499,0.204 0.851,-0.027 0.326,-0.214 0.516,-0.229 0.904,-0.073 0.542,0.218 1.124,0.178 1.89,-0.131 0.709,-0.28500001 0.729,-0.27900001 1.362,0.463 0.504,0.59 0.555,0.748 0.449,1.387 -0.145,0.877 -0.545,1.697 -0.842,1.73 -0.121,0.013 -0.461,0.033 -0.756,0.045 -0.637,0.024 -0.6,-0.16 -0.743,3.735 -0.073,2.0070002 -0.046,2.8190002 0.096,2.8190002 0.109,0 0.541,-0.334 0.959,-0.743 0.891,-0.8690002 1.708,-1.4030002 2.149,-1.4040002 0.172,-0.001 0.313,-0.122 0.313,-0.27 0,-0.147 0.145,-0.268 0.322,-0.268 0.177,0 0.42,-0.097 0.538,-0.216 0.279,-0.279 0.625,0.067 0.902,0.901 0.239,0.719 -0.053,2.0340002 -0.555,2.5030002 -0.178,0.166 -0.497,0.484 -0.708,0.705 -0.212,0.222 -0.567,0.403 -0.789,0.403 -0.223,0 -0.855,0.233 -1.405,0.519 -0.549,0.285 -1.208,0.571 -1.464,0.635 -0.433,0.109 -0.456,0.166 -0.345,0.864 0.066,0.411 0.236,0.876 0.378,1.033 0.172,0.19 0.254,0.669 0.246,1.436 -0.007,0.633 -0.004,1.535 0.007,2.003 0.011,0.468 -0.055,0.992 -0.146,1.163 -0.092,0.172 -0.195,1.078 -0.23,2.013 l -0.063,1.7 0.583,0.057 c 0.398,0.038 0.617,-0.032 0.689,-0.219 0.093,-0.244 0.155,-0.24 0.53,0.033 0.34,0.247 0.425,0.475 0.43,1.144 0.005,0.758 -0.044,0.857 -0.531,1.073 -0.296,0.13 -0.537,0.298 -0.537,0.373 0,0.074 -0.595,0.135 -1.321,0.135 -0.955,0 -1.382,-0.074 -1.543,-0.269 -0.294,-0.353 -0.716,-0.343 -0.716,0.018 0,0.232 -0.169,0.274 -0.896,0.223 -0.492,-0.034 -0.895,-0.002 -0.895,0.073 0.001,0.21 -0.295,0.157 -0.5,-0.091 z m -149.819601,-0.404 c -0.2706,-0.307 -3.3892,-0.355 -3.7476,-0.057 -0.1537,0.127 -0.3901,0.11 -0.7713,-0.057 l -0.5497,-0.242 0.0667,-1.657 c 0.0574,-1.426 0.1237,-1.717 0.4753,-2.092 0.3283,-0.349 0.4703,-0.396 0.7224,-0.239 0.1725,0.108 0.4356,0.15 0.5847,0.092 0.3075,-0.118 0.5242,-1.369 0.2892,-1.67 -0.0843,-0.108 -0.1614,-1.835 -0.1712,-3.837 -0.0098,-2.002 -0.0975,-3.847 -0.1951,-4.1 -0.0975,-0.252 -0.1696,-2.02 -0.1603,-3.9290002 0.0174,-3.566 -0.052,-3.958 -0.7,-3.958 -0.4885,0 -1.2024,-0.658 -1.3068,-1.204 -0.147,-0.769 0.2888,-1.553 1.2076,-2.173 0.8221,-0.55500001 0.8498,-0.56000001 1.4431,-0.27900001 0.3327,0.15800001 0.7052,0.22500001 0.8277,0.14900001 0.3664,-0.22600001 1.6144,-0.13600001 1.7822,0.129 0.0856,0.135 0.1568,0.385 0.1583,0.556 0.0014,0.171 0.0986,0.669 0.2158,1.107 0.164,0.613 0.1643,0.904 0.0016,1.261 -0.1297,0.284 -0.1514,0.583 -0.056,0.772 0.2865,0.568 0.6249,1.732 0.766,2.635 0.2993,1.916 0.3734,2.245 0.5272,2.34 0.0876,0.054 0.1592,0.2590002 0.1592,0.4560002 0,0.197 0.3927,0.776 0.8726,1.287 0.4799,0.511 1.0432,1.267 1.2518,1.681 0.2085,0.413 0.4847,0.815 0.6138,0.895 0.1291,0.079 0.3735,0.425 0.5432,0.77 0.4023,0.817 0.785,1.47 1.6006,2.733 0.3669,0.568 0.6671,1.087 0.6671,1.154 0,0.186 0.9246,1.507 1.476,2.109 0.2702,0.296 0.4918,0.626 0.4922,0.733 0.0013,0.304 0.6166,0.789 1.0004,0.789 0.2565,0 0.4534,0.28 0.769,1.094 0.3663,0.944 0.3967,1.186 0.2229,1.766 -0.1846,0.616 -0.264,0.678 -0.9621,0.758 -0.4185,0.048 -1.1233,0.055 -1.5664,0.017 -0.443,-0.039 -1.0203,-0.087 -1.2828,-0.107 -0.2626,-0.021 -0.5304,-0.091 -0.5953,-0.156 -0.0648,-0.064 -0.373,-0.044 -0.685,0.045 -0.3119,0.09 -0.9876,0.163 -1.5017,0.163 -0.7141,0 -0.975,-0.076 -1.1057,-0.32 -0.2108,-0.394 -0.3074,-2.404 -0.1294,-2.692 0.0716,-0.116 0.5335,-0.21 1.0286,-0.21 h 0.8987 l -0.1165,-0.582 c -0.228,-1.138 -0.4651,-1.698 -0.8873,-2.095 -0.2353,-0.221 -0.5305,-0.655 -0.6559,-0.966 -0.1254,-0.31 -0.2733,-0.604 -0.3286,-0.653 -0.3493,-0.311 -1.0832,-1.455 -1.0832,-1.689 0,-0.154 -0.0806,-0.28 -0.179,-0.28 -0.0985,0 -0.179,-0.155 -0.179,-0.344 0,-0.544 -0.5947,-1.444 -0.9555,-1.445 -0.2797,-10e-4 -0.3132,0.099 -0.2238,0.67 0.0579,0.369 0.1464,2.07 0.1968,3.779 0.0504,1.71 0.1357,3.18 0.1896,3.267 0.0539,0.087 0.2533,0.159 0.443,0.159 0.2287,0 0.4412,0.226 0.6302,0.671 0.5201,1.224 0.0368,2.909 -0.8345,2.909 -0.1758,0 -0.3695,0.08 -0.4303,0.179 -0.1557,0.252 -0.4969,0.211 -0.7635,-0.092 z m 172.740601,-0.076 c -0.52,-0.435 -0.51,-1.019 0.038,-2.217 0.334,-0.73 0.414,-1.132 0.331,-1.661 -0.126,-0.799 -0.937,-1.845 -1.686,-2.173 -0.334,-0.146 -0.557,-0.416 -0.654,-0.79 -0.178,-0.687 -0.649,-1.048 -0.961,-0.736 -0.164,0.163 -0.161,0.274 0.011,0.481 0.128,0.154 0.28,1.118 0.355,2.247 0.138,2.092 0.219,2.272 1.224,2.692 0.387,0.162 0.493,0.513 0.405,1.34 -0.074,0.698 -0.3,0.763 -2.737,0.782 -1.302,0.01 -2.525,0.04 -2.718,0.066 -0.457,0.062 -0.88,-0.775 -0.724,-1.436 0.068,-0.289 0.495,-0.792 1.056,-1.241 0.852,-0.684 0.959,-0.85 1.122,-1.752 0.169,-0.934 0.072,-2.463 -0.172,-2.707 -0.232,-0.232 -1.043,0.145 -1.24,0.577 -0.127,0.279 -0.405,0.493 -0.721,0.556 -0.39,0.078 -0.728,0.421 -1.398,1.413 -0.486,0.72 -0.884,1.415 -0.884,1.543 0,0.26 0.613,0.716 1.164,0.864 0.275,0.074 0.371,0.276 0.414,0.875 0.031,0.428 -0.021,0.855 -0.116,0.949 -0.094,0.095 -0.87,0.165 -1.724,0.155 -0.854,-0.009 -1.707,0.066 -1.897,0.168 -0.211,0.113 -0.569,0.126 -0.927,0.033 -0.567,-0.146 -0.588,-0.186 -0.734,-1.388 -0.148,-1.222 -0.144,-1.242 0.358,-1.638 1.421,-1.121 1.672,-1.368 1.672,-1.644 0,-0.165 0.23,-0.58 0.512,-0.922 0.281,-0.342 0.565,-0.793 0.631,-1.002 0.066,-0.208 0.278,-0.523 0.473,-0.699 0.194,-0.176 0.353,-0.418 0.353,-0.537 0,-0.12 0.281,-0.41 0.625,-0.644 0.344,-0.234 0.626,-0.483 0.627,-0.554 0,-0.071 0.125,-0.081 0.276,-0.023 0.152,0.058 0.419,-0.024 0.594,-0.183 0.175,-0.158 0.573,-0.339 0.884,-0.401 0.864,-0.173 1.001,-0.452 0.848,-1.729 -0.073,-0.614 -0.145,-2.16 -0.159,-3.436 l -0.025,-2.3210002 -0.756,-0.15 c -0.462,-0.092 -0.888,-0.32 -1.099,-0.588 -0.19,-0.241 -0.462,-0.438 -0.605,-0.438 -0.143,0 -0.405,-0.161 -0.583,-0.358 -0.179,-0.197 -0.433,-0.358 -0.565,-0.358 -0.148,0 -0.241,-0.206 -0.241,-0.531 0,-0.347 -0.124,-0.597 -0.358,-0.722 -0.197,-0.105 -0.358,-0.3 -0.358,-0.432 0,-0.481 -0.731,-0.797 -2.03,-0.877 -0.191,-0.012 -0.478,-0.313 -0.684,-0.716 -0.428,-0.84 -0.315,-1.991 0.224,-2.28 0.188,-0.1 0.342,-0.343 0.342,-0.54 0,-0.52700001 0.41,-0.59400001 1.165,-0.189 0.594,0.318 0.714,0.33 1.059,0.104 0.339,-0.22200001 0.44,-0.22000001 0.779,0.018 0.215,0.15 0.573,0.255 0.797,0.233 0.224,-0.022 0.651,0.057 0.95,0.176 0.427,0.169 0.599,0.398 0.8,1.062 0.141,0.465 0.231,0.926 0.2,1.024 -0.031,0.099 -0.088,0.34 -0.127,0.537 -0.039,0.196 -0.152,0.384 -0.251,0.418 -0.364,0.121 -0.1,0.619 0.782,1.474 0.267,0.259 0.381,0.28 0.558,0.104 0.321,-0.321 0.491,-0.963 0.289,-1.088 -0.096,-0.059 -0.383,-0.754 -0.639,-1.544 -0.398,-1.228 -0.437,-1.539 -0.274,-2.145 l 0.191,-0.70900001 h 1.01 c 1.147,0 2.476,0.53900001 2.645,1.07400001 0.243,0.765 0.167,2.482 -0.124,2.808 -0.159,0.178 -0.317,0.647 -0.351,1.04 -0.053,0.623 -0.011,0.724 0.33,0.772 0.258,0.037 0.49,-0.094 0.68,-0.384 0.158,-0.242 0.445,-0.481 0.637,-0.531 0.5,-0.131 0.459,-1.042 -0.075,-1.678 -0.588,-0.7 -0.773,-1.9 -0.385,-2.493 0.244,-0.37100001 0.42,-0.44600001 0.962,-0.40700001 0.365,0.027 0.76,-0.012 0.879,-0.085 0.118,-0.073 0.357,-0.059 0.532,0.03 0.337,0.17400001 0.702,0.105 1.095,-0.207 0.133,-0.105 0.549,-0.169 0.924,-0.142 0.484,0.035 0.73,-0.037 0.847,-0.245 0.119,-0.212 0.359,-0.277 0.866,-0.236 0.667,0.055 0.717,0.102 1.007,0.952 0.173,0.50600001 0.306,1.44100001 0.307,2.14800001 0.003,1.612 -0.3,2.028 -1.587,2.181 -0.497,0.059 -0.905,0.176 -0.905,0.261 0,0.085 -0.141,0.16 -0.313,0.167 -0.612,0.026 -1.386,0.625 -1.444,1.119 -0.031,0.263 -0.165,0.479 -0.298,0.479 -0.133,0 -0.269,0.068 -0.302,0.15 -0.032,0.083 -0.451,0.448 -0.93,0.811 -0.601,0.456 -0.98,0.626 -1.222,0.55 -0.212,-0.068 -0.433,-0.005 -0.561,0.158 -0.116,0.148 -0.371,0.299 -0.568,0.335 -0.331,0.06 -0.354,0.181 -0.296,1.5810002 0.034,0.834 0.142,1.566 0.239,1.626 0.107,0.066 0.137,0.64 0.076,1.432 -0.124,1.615 -0.14,2.336 -0.055,2.42 0.035,0.036 0.3,0.075 0.587,0.087 0.598,0.025 1.269,0.288 1.747,0.685 0.181,0.15 0.423,0.279 0.537,0.286 0.993,0.057 1.363,0.473 1.369,1.537 0.002,0.259 0.123,0.57 0.271,0.693 0.147,0.123 0.268,0.374 0.268,0.559 0,0.185 0.109,0.336 0.241,0.336 0.53,0 0.924,0.726 0.885,1.63 -0.041,0.954 -0.026,0.975 0.467,0.667 0.273,-0.17 0.495,-0.125 1.206,0.247 0.828,0.434 0.872,0.495 0.902,1.238 0.069,1.746 -0.609,2.251 -2.895,2.154 -0.788,-0.033 -1.634,-0.068 -1.88,-0.077 -0.246,-0.009 -0.568,0.036 -0.716,0.1 -0.15,0.065 -0.447,-0.033 -0.671,-0.22 z m -158.869201,-0.068 c -1.2208,-0.214 -1.3126,-0.394 -1.1198,-2.195 0.106,-0.99 0.1875,-1.193 0.5298,-1.323 0.517,-0.197 0.8659,-1.742 0.7691,-3.406 -0.0372,-0.64 0.0036,-1.647 0.0907,-2.238 0.3058,-2.073 0.3032,-2.159 -0.0722,-2.393 -0.2984,-0.187 -0.4774,-0.148 -1.1504,0.246 -0.4384,0.257 -0.7511,0.541 -0.695,0.632 0.1481,0.24 -0.2199,0.848 -0.5855,0.967 -0.1724,0.056 -0.4954,0.384 -0.7178,0.728 -0.5655,0.875 -1.6542,0.807 -1.6542,-0.104 0,-0.165 -0.1261,-0.405 -0.2803,-0.533 -0.1542,-0.128 -0.3977,-0.459 -0.5411,-0.737 -0.2363,-0.457 -0.227,-0.571 0.0987,-1.209 0.1978,-0.388 0.4413,-0.755 0.5412,-0.817 0.0998,-0.062 0.1815,-0.236 0.1815,-0.386 0,-0.283 0.6747,-0.942 0.9749,-0.952 0.207,-0.007 1.5973,-0.938 1.6803,-1.125 0.0329,-0.074 0.2342,-0.134 0.4475,-0.135 0.2134,0 0.6698,-0.241 1.0144,-0.535 l 0.6265,-0.536 0.0104,-2.5520002 c 0.0057,-1.403 -0.0576,-2.693 -0.1406,-2.865 -0.1129,-0.234 -0.369,-0.313 -1.0177,-0.313 -0.5413,0 -0.9482,-0.098 -1.0835,-0.261 -0.2852,-0.344 -0.0663,-1.342 0.324,-1.477 0.163,-0.057 0.5783,-0.363 0.9229,-0.681 0.7068,-0.651 1.3886,-0.883 1.7393,-0.592 0.1757,0.146 0.3197,0.121 0.5604,-0.097 0.1782,-0.161 0.5996,-0.297 0.9364,-0.301 0.5393,-0.007 1.1217,-0.10500001 2.6267,-0.44500001 0.6072,-0.137 1.1621,0.84100001 1.0189,1.79500001 -0.1279,0.852 -0.5413,1.256 -1.4607,1.426 -1.1433,0.213 -1.254,0.421 -1.2205,2.3 0.0285,1.599 0.132,2.092 0.4397,2.092 0.1868,0 2.4655,-1.649 3.0959,-2.24 0.2676,-0.251 0.6153,-0.728 0.7728,-1.059 0.3389,-0.715 0.9641,-0.958 1.2888,-0.502 0.1216,0.171 0.4035,0.543 0.6265,0.828 1.0609,1.355 0.8525,2.376 -0.8724,4.271 -0.3024,0.333 -0.6964,0.8280002 -0.8755,1.1020002 -0.1792,0.273 -0.4929,0.573 -0.6972,0.667 -0.5887,0.27 -1.19,0.633 -1.4069,0.85 -0.1098,0.11 -0.5481,0.2 -0.9738,0.2 -1.1327,0 -1.1991,0.287 -0.9409,4.06 0.1545,2.256 0.1582,3.319 0.014,3.991 -0.108,0.504 -0.1964,1.187 -0.1964,1.517 0,0.534 0.0454,0.59 0.4027,0.503 0.2215,-0.054 0.4964,-0.172 0.6108,-0.261 0.3265,-0.254 1.5714,0.409 1.6375,0.873 0.0305,0.214 0.1715,0.485 0.3133,0.603 0.4279,0.355 0.3101,1.284 -0.2476,1.952 l -0.5054,0.606 -2.1349,0.018 c -1.1742,0.01 -2.2558,0.065 -2.4035,0.122 -0.1477,0.057 -0.7335,0.021 -1.3018,-0.079 z m 71.918201,0.052 c -0.295,-0.073 -0.899,-0.143 -1.342,-0.156 -0.443,-0.013 -0.912,-0.091 -1.041,-0.173 -0.235,-0.149 -0.749,-1.021 -0.749,-1.27 0,-0.072 0.36,-0.526 0.801,-1.009 0.547,-0.598 0.803,-1.038 0.806,-1.382 0.002,-0.277 0.077,-0.64 0.166,-0.807 0.089,-0.167 0.202,-0.679 0.249,-1.138 0.048,-0.459 0.141,-0.921 0.206,-1.027 0.066,-0.106 0.011,-0.348 -0.123,-0.538 -0.179,-0.257 -0.211,-0.684 -0.122,-1.652 0.091,-0.994 0.058,-1.401 -0.137,-1.698 -0.191,-0.292 -0.227,-0.683 -0.14,-1.526 0.064,-0.623 0.102,-1.416 0.084,-1.76 -0.018,-0.345 -0.025,-1.07 -0.015,-1.611 0.01,-0.5420002 0.022,-1.1860002 0.027,-1.4320002 0.005,-0.246 -0.046,-0.713 -0.113,-1.036 -0.066,-0.324 -0.024,-0.934 0.094,-1.355 0.18,-0.645 0.166,-0.915 -0.091,-1.699 -0.168,-0.513 -0.449,-1.034 -0.624,-1.156 -0.435,-0.305 -0.64,-1.757 -0.348,-2.462 0.296,-0.71500001 1.106,-1.13000001 1.911,-0.97900001 0.386,0.073 0.717,0.034 0.881,-0.103 0.409,-0.339 2.431,-0.219 2.705,0.16 0.122,0.169 0.404,0.54200001 0.627,0.83000001 0.324,0.419 0.394,0.705 0.348,1.432 -0.032,0.5 -0.163,1.017 -0.292,1.149 -0.225,0.231 -1.152,0.333 -1.705,0.187 -0.324,-0.085 -0.482,0.688 -0.198,0.971 0.106,0.107 0.194,0.536 0.194,0.954 0,0.417 0.075,0.805 0.166,0.861 0.159,0.099 0.144,0.672 -0.101,3.7100002 -0.105,1.304 -0.088,1.396 0.335,1.79 0.245,0.229 0.501,0.593 0.569,0.81 0.068,0.218 0.744,1.037 1.502,1.822 1.516,1.57 2.205,2.406 2.401,2.911 0.071,0.183 0.2,0.332 0.289,0.332 0.088,0 0.359,0.302 0.602,0.671 0.243,0.369 0.738,1.115 1.099,1.657 0.361,0.543 0.656,1.094 0.656,1.226 0,0.351 0.703,1.279 0.968,1.279 0.126,0 0.379,0.28 0.564,0.622 0.604,1.123 0.8,0.984 1.633,-1.159 0.15,-0.386 0.234,-1.246 0.219,-2.238 -0.014,-0.886 -0.021,-1.893 -0.014,-2.237 0.006,-0.345 -0.071,-1.15 -0.171,-1.79 -0.1,-0.64 -0.187,-3.725 -0.194,-6.8570002 -0.009,-4.576 -0.057,-5.675 -0.242,-5.604 -0.128,0.049 -0.521,0.143 -0.875,0.21 -0.535,0.1 -0.715,0.048 -1.075,-0.312 -0.237,-0.238 -0.526,-0.805 -0.641,-1.261 -0.203,-0.806 -0.192,-0.851 0.377,-1.55800001 0.321,-0.4 0.632,-0.73 0.689,-0.733 0.057,-0.003 1.68,-0.028 3.606,-0.057 l 3.502,-0.053 0.302,0.731 c 0.374,0.90500001 0.38,1.46700001 0.023,2.15300001 -0.162,0.311 -0.231,0.715 -0.166,0.974 0.082,0.326 0.012,0.518 -0.263,0.726 -0.368,0.277 -0.359,0.292 0.517,0.947 0.49,0.366 1.006,0.621 1.148,0.566 0.161,-0.062 0.446,0.17 0.768,0.626 0.282,0.398 0.593,0.727 0.692,0.731 0.098,0.004 0.42,0.287 0.716,0.63 0.295,0.342 0.8,0.909 1.123,1.259 0.322,0.351 0.822,1.0560002 1.111,1.5670002 0.536,0.948 1.606,2.093 1.957,2.093 0.111,0 0.204,0.384 0.217,0.895 0.026,1.046 0.034,1.103 0.192,1.351 0.145,0.228 0.073,4.893 -0.082,5.272 -0.256,0.627 -0.455,2.065 -0.309,2.24 0.085,0.103 0.543,0.172 1.018,0.152 0.773,-0.032 0.901,0.019 1.244,0.501 0.482,0.68 0.367,1.139 -0.527,2.103 -0.649,0.7 -0.895,0.838 -1.29,0.722 -0.191,-0.056 -3.397,-0.361 -3.849,-0.367 -0.148,-0.002 -0.659,0.054 -1.137,0.123 -1.037,0.15 -1.183,0.002 -1.187,-1.203 -0.004,-1.233 0.418,-1.67 1.553,-1.61 1.095,0.058 1.478,-0.267 1.154,-0.978 -0.129,-0.283 -0.147,-0.564 -0.048,-0.741 0.09,-0.16 0.094,-0.515 0.01,-0.808 -0.252,-0.879 -0.386,-3.404 -0.221,-4.162 0.086,-0.393 0.128,-0.893 0.094,-1.11 -0.075,-0.479 -1.712,-2.187 -2.455,-2.56 -0.294,-0.149 -0.669,-0.552 -0.832,-0.895 -0.163,-0.344 -0.506,-0.821 -0.762,-1.06 -0.255,-0.238 -0.465,-0.52 -0.465,-0.627 0,-0.106 -0.488,-0.7020002 -1.086,-1.3230002 -0.916,-0.955 -1.127,-1.096 -1.357,-0.905 -0.199,0.165 -0.247,0.443 -0.179,1.041 0.051,0.449 0.144,1.3000002 0.206,1.8900002 0.062,0.591 0.195,1.243 0.295,1.449 0.172,0.354 0.125,8.186 -0.054,8.862 -0.041,0.157 -0.208,0.489 -0.371,0.736 -0.22,0.336 -0.243,0.502 -0.091,0.654 0.246,0.246 0.787,0.266 0.93,0.034 0.057,-0.092 0.404,-0.149 0.771,-0.126 0.501,0.032 0.681,0.13 0.729,0.393 0.034,0.192 0.136,0.426 0.224,0.519 0.089,0.094 0.162,0.636 0.162,1.205 0,0.9 -0.057,1.071 -0.44,1.322 -0.241,0.158 -0.519,0.239 -0.616,0.179 -0.097,-0.06 -1.208,-0.114 -2.469,-0.12 -1.304,-0.006 -2.389,-0.091 -2.516,-0.197 -0.155,-0.129 -0.378,-0.122 -0.73,0.024 -0.675,0.279 -4.469,0.136 -5.16,-0.195 -0.383,-0.183 -0.514,-0.377 -0.529,-0.779 -0.02,-0.562 0.702,-1.698 1.079,-1.698 0.494,0 0.622,-0.395 0.314,-0.97 -0.43,-0.802 -1.033,-1.536 -1.263,-1.536 -0.107,0 -0.414,-0.342 -0.682,-0.761 -0.267,-0.418 -0.832,-1.176 -1.255,-1.684 -0.423,-0.508 -0.769,-1.038 -0.769,-1.177 0,-0.14 -0.185,-0.427 -0.411,-0.64 -0.387,-0.363 -0.426,-0.367 -0.675,-0.076 -0.207,0.243 -0.252,0.737 -0.207,2.279 0.032,1.083 0.051,2.344 0.041,2.801 -0.016,0.793 0.03,0.873 0.973,1.701 0.899,0.789 0.991,0.936 0.993,1.607 0.002,0.715 -0.31,1.208 -0.783,1.237 -0.11,0.007 -0.401,0.063 -0.647,0.126 -0.802,0.202 -2.047,0.265 -2.596,0.131 z m 17.095,-22.3890002 c 0,-0.242 -0.128,-0.339 -0.447,-0.339 -0.47,0 -0.59,0.324 -0.247,0.666 0.278,0.278 0.694,0.082 0.694,-0.327 z m -37.67,22.2550002 c -0.03,-0.03 -0.902,-0.061 -1.939,-0.069 -1.843,-0.015 -1.893,-0.027 -2.251,-0.51 -0.201,-0.272 -0.311,-0.549 -0.245,-0.615 0.067,-0.067 0.126,-0.458 0.133,-0.871 0.006,-0.412 0.077,-0.94 0.157,-1.174 0.131,-0.382 0.224,-0.415 0.951,-0.333 0.623,0.071 0.88,0.018 1.129,-0.23 0.291,-0.292 0.315,-0.623 0.25,-3.485 -0.039,-1.74 -0.097,-3.217 -0.13,-3.283 -0.074,-0.151 0.007,-9.1300002 0.086,-9.5830002 0.033,-0.183 -0.072,-0.418 -0.232,-0.522 -0.231,-0.15 -0.478,-0.03 -1.208,0.585 -0.505,0.426 -0.918,0.877 -0.918,1.002 0,0.126 -0.155,0.278 -0.344,0.338 -0.189,0.06 -1.031001,0.784 -1.870001,1.608 -0.84,0.824 -1.706,1.5560002 -1.925,1.6250002 -0.728,0.232 -1.154,-0.8730002 -0.612,-1.5880002 0.151,-0.2 0.212,-0.555 0.156,-0.904 -0.12,-0.736 0.36,-1.903 0.834,-2.027 0.198,-0.051 0.36,-0.163 0.36,-0.246 0,-0.084 0.106,-0.112 0.236,-0.062 0.374,0.143 1.204,-0.378 1.576,-0.99 0.188,-0.309 0.416001,-0.516 0.506001,-0.461 0.09,0.056 0.218,0.013 0.285,-0.095 0.067,-0.108 0.305,-0.15 0.529,-0.094 0.703,0.177 0.688,-0.491 -0.025,-1.122 -0.484,-0.428 -0.593,-0.641 -0.524,-1.021 0.084,-0.467 0.448,-1.009 0.983,-1.46500001 0.358,-0.306 1.603,-0.28 2.228,0.046 0.679,0.354 1.478,0.344 1.618,-0.022 0.079,-0.205 0.175,-0.236 0.332,-0.106 0.249,0.205 1.2,0.173 1.564,-0.052 0.406,-0.251 1.129,0.75600001 1.002,1.39400001 -0.059,0.291 -0.107,0.759 -0.107,1.039 0,0.425 -0.097,0.535 -0.581,0.66 -0.682,0.177 -1.162,0.889 -0.942,1.398 0.081,0.188 0.164,2.415 0.185,4.949 0.029,3.3790002 0.099,4.6800002 0.263,4.8780002 0.164,0.198 0.172,0.333 0.028,0.507 -0.144,0.173 -0.142,0.292 0.006,0.44 0.141,0.141 0.146,0.273 0.017,0.434 -0.113,0.142 -0.176,1.409 -0.162,3.273 l 0.023,3.041 0.524,0.091 c 0.606,0.106 0.804,0.597 0.852,2.112 0.04,1.253 -0.204,1.481 -1.63,1.527 -0.613,0.02 -1.139,0.012 -1.168,-0.017 z m 5.584,-0.007 c -0.472,-0.055 -0.579,-0.241 -0.53,-0.928 0.011,-0.148 0.036,-0.631 0.056,-1.074 0.053,-1.147 0.265,-1.492 0.848,-1.376 0.268,0.054 0.623,-0.013 0.814,-0.153 0.296,-0.216 0.31,-0.313 0.118,-0.777 -0.139,-0.336 -0.204,-1.272 -0.178,-2.558 0.023,-1.115 -0.018,-3.075 -0.091,-4.355 -0.191,-3.333 -0.182,-4.364 0.061,-6.9810002 0.129,-1.387 0.156,-2.616 0.066,-3.043 -0.139,-0.664 -0.2,-0.722 -0.847,-0.805 -0.69,-0.089 -0.699,-0.1 -0.937,-1.175 -0.207,-0.933 -0.203,-1.174 0.025,-1.719 0.242,-0.58100001 0.344,-0.64600001 1.213,-0.76800001 0.521,-0.073 1.109,-0.121 1.306,-0.108 0.197,0.014 0.76,0.042 1.251,0.063 0.845,0.035 0.909,0.073 1.216,0.72300001 0.268,0.568 0.37,0.649 0.585,0.471 0.143,-0.119 0.26,-0.357 0.26,-0.53 0,-0.17300001 0.124,-0.41800001 0.276,-0.54400001 0.336,-0.279 1.861,-0.286 2.374,-0.012 0.229,0.122 0.527,0.139 0.784,0.045 0.83,-0.307 1.869,-0.383 2.141,-0.158 0.147,0.122 0.415,0.564 0.596,0.98400001 0.289,0.671 0.301,0.848 0.094,1.474 -0.262,0.793 -0.588,1.146 -1.465,1.583 -0.377,0.189 -0.741,0.591 -0.997,1.103 -0.222,0.443 -0.765,1.182 -1.208,1.643 -0.443,0.46 -0.805,0.893 -0.805,0.96 0,0.068 -0.242,0.399 -0.537,0.736 -0.296,0.336 -0.537,0.719 -0.537,0.851 0,0.133 -0.114,0.3350002 -0.253,0.4510002 -0.14,0.115 -0.422,0.548 -0.628,0.962 -0.206,0.413 -0.445,0.872 -0.532,1.02 -0.501,0.856 -0.584,1.269 -0.487,2.435 0.146,1.749 0.146,1.763 0.108,3.713 -0.019,0.989 0.044,1.842 0.145,1.943 0.114,0.113 0.12,0.384 0.018,0.741 -0.089,0.31 -0.161,0.785 -0.161,1.056 0,0.438 0.066,0.494 0.581,0.494 1.189,0 2.245,2.324 1.506,3.311 -0.248,0.331 -0.477,0.358 -3.013,0.358 -1.509,0 -2.966,-0.025 -3.236,-0.056 z m 5.209,-20.4060002 c 1.01,-1.274 1.18,-2.181 0.41,-2.181 -0.221,0 -0.386,-0.166 -0.46,-0.46 -0.149,-0.595 -0.383,-0.502 -1.051,0.42 -0.478,0.66 -0.518,0.805 -0.334,1.209 0.115,0.252 0.209,0.737 0.209,1.077 0,0.853 0.521,0.825 1.226,-0.065 z M 22.993399,25.645613 c -0.3752,-0.245 -0.8182,-0.433 -0.9846,-0.416 -0.7885,0.078 -0.8012,0.052 -0.6818,-1.399 0.2233,-2.712 0.2828,-2.937 0.8323,-3.144 0.384,-0.145 0.5232,-0.337 0.5986,-0.827 0.054,-0.351 0.1486,-0.924 0.2101,-1.274 0.1578,-0.897 -0.2528,-1.238 -0.9475,-0.786 -0.2712,0.177 -0.5737,0.421 -0.6721,0.543 -0.0985,0.123 -0.3315,0.249 -0.5179,0.282 -0.1863,0.033 -0.3983,0.181 -0.471,0.329 -0.7598,1.542 -0.9092,2.014 -0.798,2.52 0.066,0.301 0.2311,0.59 0.3668,0.642 0.1358,0.052 0.2984,0.369 0.3615,0.706 0.063,0.336 0.186,0.655 0.2733,0.709 0.0873,0.054 0.1587,0.366 0.1587,0.693 0,0.952 -0.4729,1.139 -3.002,1.19 -1.7979,0.036 -2.2406,-0.009 -2.6342,-0.267 -0.379,-0.248 -0.4523,-0.405 -0.3683,-0.79 0.0576,-0.265 0.0323,-0.867 -0.0564,-1.34 -0.191,-1.017 0.0467,-1.378 0.9077,-1.378 0.6318,0 1.0222,-0.414 1.0305,-1.092 0.0031,-0.255 0.1668,-0.65 0.3637,-0.877 0.1969,-0.227 0.358,-0.513 0.358,-0.635 0,-0.122 0.1128,-0.265 0.2506,-0.318 0.1379,-0.053 0.306,-0.424 0.3736,-0.824 0.1009,-0.597 0.2318,-0.779 0.731,-1.016 0.3345,-0.159 0.7771,-0.562 0.9836,-0.896 0.2065,-0.334 0.4529,-0.607 0.5476,-0.607 0.0948,0 0.3818,-0.195 0.638,-0.432 0.3905,-0.362 0.5338,-0.401 0.8879,-0.239 0.7124,0.324 0.721,0.274 0.576,-3.402 -0.0845,-2.1420002 0.1056,-4.4620002 0.4142,-5.0540002 0.4027,-0.771 0.433,-1.892 0.0551,-2.037 -0.1487,-0.057 -0.5001,-0.058 -0.7807,-0.002 -1.0668,0.214 -1.9919,-0.668 -1.9919,-1.899 0,-1.157 0.5173,-1.56200001 1.5864,-1.242 0.5684,0.171 0.7956,0.156 1.2967,-0.08 0.7601,-0.359 1.7912,-0.484 2.0793,-0.253 0.1481,0.119 0.3005,0.094 0.472,-0.077 0.1393,-0.14 0.7074,-0.355 1.2625,-0.479 0.9091,-0.204 1.066,-0.193 1.5805,0.107 0.6591,0.385 0.8886,1.13000001 0.7243,2.35100001 -0.0837,0.622 -0.1973,0.813 -0.5703,0.959 -0.2562,0.1 -0.6056,0.254 -0.7766,0.342 -0.4432,0.228 -0.8517,0.197 -0.8586,-0.064 -0.0033,-0.123 -0.1644,-0.034 -0.358,0.199 -0.3176,0.381 -0.3525,0.705 -0.3564,3.311 -0.0024,1.589 -0.0862,3.2440002 -0.1862,3.6780002 -0.1427,0.618 -0.1245,0.909 0.0844,1.349 0.2116,0.446 0.2269,0.716 0.0748,1.315 -0.1942,0.765 -0.0143,1.29 0.4419,1.29 0.1033,0 0.326,0.126 0.4951,0.279 0.169,0.153 0.4846,0.291 0.7014,0.307 0.2175,0.017 0.6309,0.329 0.9224,0.697 0.2905,0.367 0.694,0.72 0.8966,0.784 0.4363,0.138 1.049,0.717 1.049,0.991 0,0.106 0.3265,0.802 0.7256,1.546 0.399,0.745 0.6915,1.443 0.65,1.552 -0.1382,0.364 0.2191,1.004 0.5599,1.004 0.4903,0 0.881,0.539 0.8944,1.233 0.0064,0.334 0.0972,0.692 0.2019,0.797 0.2668,0.267 0.2369,1.06 -0.0551,1.46 -0.2715,0.371 -1.3211,0.529 -1.6578,0.25 -0.1418,-0.118 -0.2536,-0.111 -0.3344,0.019 -0.0872,0.142 -0.192,0.138 -0.3723,-0.011 -0.4118,-0.342 -2.0366,-0.393 -2.5158,-0.079 -0.3862,0.253 -0.4476,0.245 -0.7959,-0.103 -0.3426,-0.343 -0.3588,-0.452 -0.1748,-1.183 0.1116,-0.443 0.155,-0.955 0.0966,-1.139 -0.1746,-0.551 0.219,-1.065 0.815,-1.065 0.4728,0 0.5307,-0.059 0.5307,-0.548 0,-0.661 -0.2359,-1.152 -0.8968,-1.868 -0.2727,-0.295 -0.547,-0.698 -0.6096,-0.895 -0.1582,-0.498 -1.267,-1.003 -1.6171,-0.737 -0.3681,0.28 -0.637,1.653 -0.512,2.615 0.1232,0.948 0.3324,1.274 0.7209,1.125 0.5023,-0.193 0.7665,0.466 0.7665,1.91 0,1.305 -0.0178,1.362 -0.4922,1.572 -0.2708,0.12 -0.659,0.174 -0.8628,0.121 -0.2192,-0.058 -0.4657,0.017 -0.6037,0.183 -0.3397,0.41 -1.2523,0.326 -2.0349,-0.186 z m 68.1514,0.282 c -0.189,-0.068 -0.436,-0.088 -0.549,-0.046 -0.113,0.043 -0.26,-0.01 -0.326,-0.117 -0.066,-0.107 -0.184,-0.154 -0.262,-0.106 -0.404,0.25 -1.516,-2.032 -1.324,-2.717 0.049,-0.175 0.372,-0.502 0.718,-0.725 l 0.63,-0.406 0.623,0.385 c 0.582,0.36 0.643,0.365 0.922,0.087 0.372,-0.372 0.397,-1.66 0.046,-2.316 -0.199,-0.371 -0.211,-0.618 -0.059,-1.146 0.562,-1.951 0.621,-2.987 0.185,-3.282 -0.084,-0.057 -0.03,-0.339 0.12,-0.627 0.381,-0.73 0.375,-2.733 -0.009,-2.88 -0.164,-0.063 -0.446,0.048 -0.671,0.265 -0.213,0.206 -0.73,0.701 -1.148,1.099 -0.419,0.399 -0.762,0.785 -0.763,0.859 -0.002,0.197 -0.9021,0.582 -1.3625,0.582 -0.2506,0 -0.6847,0.322 -1.1726,0.871 -0.426,0.479 -0.9938,0.923 -1.2617,0.986 -0.2679,0.064 -0.5741,0.278 -0.6803,0.477 -0.1063,0.199 -0.6322,0.8 -1.1687,1.337 -0.5365,0.536 -0.9755,1.048 -0.9755,1.137 0,0.089 -0.1409,0.203 -0.3132,0.252 -0.1723,0.05 -0.4394,0.142 -0.5934,0.206 -0.5803,0.241 -1.5575,-1.131 -1.1184,-1.571 0.2267,-0.226 0.2728,-0.9 0.3448,-5.038 0.0413,-2.372 0.1541,-4.3200002 0.2663,-4.5970002 0.107,-0.264 0.1388,-0.734 0.0707,-1.045 -0.0839,-0.382 0.0041,-0.962 0.2726,-1.797 0.2181,-0.678 0.3486,-1.358 0.2901,-1.51 -0.1801,-0.469 -0.6467,-0.521 -1.0265,-0.113 -0.1952,0.209 -0.4602,0.381 -0.5887,0.381 -0.4469,0 -1.1273,-1.062 -0.6921,-1.08 0.0739,-0.003 0.2747,-0.199 0.4464,-0.435 0.2969,-0.408 0.2969,-0.456 0,-0.977 -0.2848,-0.499 -0.288,-0.59 -0.0357,-1.041 0.2323,-0.41600001 0.404,-0.49900001 1.074,-0.52300001 0.4387,-0.016 1.2004,-0.074 1.6926,-0.128 0.4923,-0.055 1.6603,-0.173 2.5956,-0.262 l 1.7005,-0.163 0.3963,0.47 c 0.3217,0.38100001 0.3976,0.69700001 0.4028,1.67800001 0.0035,0.664 -0.0687,1.208 -0.1605,1.208 -0.0918,0 -0.2149,0.151 -0.2734,0.335 -0.1271,0.401 -1.1052,0.605 -1.86,0.388 -0.7142,-0.204 -1.0853,0.041 -0.7875,0.522 0.2732,0.441 0.2909,1.598 0.0348,2.271 -0.1039,0.274 -0.2153,1.399 -0.2476,2.501 -0.0322,1.1020002 -0.1119,2.0900002 -0.177,2.1960002 -0.0652,0.105 -0.0332,0.508 0.071,0.895 0.1876,0.697 0.1952,0.702 0.7481,0.497 0.3073,-0.114 0.8902,-0.54 1.2953,-0.945 0.4052,-0.406 1.0186,-0.88 1.3632,-1.055 0.3446,-0.174 0.6802,-0.4 0.7462,-0.502 0.066,-0.103 0.232,-0.203 0.368,-0.223 0.137,-0.02 0.505,-0.293 0.819,-0.6070002 0.407,-0.407 0.672,-0.538 0.924,-0.458 0.275,0.087 0.669,-0.2 1.761,-1.285 1.295,-1.286 1.441,-1.381 1.82,-1.19 0.549,0.276 0.744,0.623 0.51,0.906 -0.128,0.154 -0.154,1.1 -0.078,2.8700002 0.244,5.735 0.212,8.861 -0.107,10.198 -0.1,0.417 -0.128,0.969 -0.063,1.228 0.102,0.406 0.185,0.454 0.602,0.351 1.395,-0.345 1.447,-0.338 2.012,0.266 0.521,0.558 0.543,0.643 0.493,1.944 l -0.052,1.361 -3.057,0.013 c -1.682,0.007 -3.213,-0.042 -3.401,-0.109 z m -83.1322004,-1.03 c -1.1334,-0.374 -1.8229,-1.806 -1.4351,-2.981 0.1154,-0.35 0.264,-0.642 0.3302,-0.65 0.2696,-0.031 0.6751,-0.138 0.9692,-0.256 0.2052,-0.083 0.3492,-0.028 0.4215,0.161 0.1395,0.363 0.4033,0.203 0.625,-0.38 0.1256,-0.331 0.1042,-0.559 -0.0786,-0.838 -0.4227,-0.645 -0.1511,-10.0470002 0.3302,-11.4290002 0.1454,-0.417 0.2656,-0.968 0.2671,-1.224 0.003,-0.542 -0.3348,-1.593 -0.5121,-1.593 -0.2173,0 -0.9174,0.552 -0.9174,0.724 0,0.245 -0.5855,0.887 -0.8093,0.887 -0.106,0 -0.2877,0.262 -0.4038,0.583 -0.1388,0.384 -0.4424,0.703 -0.8863,0.931 -0.9323,0.48 -1.3016,0.814 -1.3016,1.1790002 0,0.194 -0.2618,0.416 -0.6975,0.59 -0.3837,0.153 -0.867,0.517 -1.0741,0.808 -0.4475,0.628 -0.464,0.742 -0.108,0.742 0.1477,0 0.2686,-0.074 0.2686,-0.164 0,-0.089 0.3259,-0.218 0.7243,-0.285 0.6276,-0.106 0.7795,-0.063 1.1373,0.323 0.555,0.599 0.6849,1.386 0.4507,2.73 -0.2283,1.311 -0.6595,1.871 -1.4419,1.871 -0.4308,0 -0.7731,-0.227 -1.6041,-1.063 -0.9699,-0.976 -1.0564,-1.128 -1.0564,-1.855 0,-0.622 -0.1039,-0.896 -0.482,-1.274 -0.3683,-0.369 -0.4912,-0.681 -0.5208,-1.323 -0.0213,-0.462 -0.0955,-1.1330002 -0.1648,-1.4920002 -0.1709,-0.884 0.1879,-1.92 0.7377,-2.129 0.2364,-0.09 0.4299,-0.233 0.4299,-0.318 0,-0.084 0.4431,-0.378 0.9845,-0.652 0.5415,-0.274 0.9846,-0.609 0.9846,-0.745 0,-0.151 0.1936,-0.247 0.4972,-0.247 0.5259,0 1.1338,-0.545 1.2986,-1.164 0.0525,-0.197 0.274,-0.437 0.4923,-0.534 0.2183,-0.098 0.3969,-0.236 0.3969,-0.308 0,-0.284 1.1591,-1.756 1.4569,-1.851 0.1738,-0.055 0.5937,-0.378 0.9332,-0.71700001 0.3394,-0.34 0.7816,-0.617 0.9825,-0.617 0.2009,0 0.4059,-0.066 0.4555,-0.146 0.0758,-0.123 1.0239004,-0.143 2.4909004,-0.053 0.4086,0.025 0.8846,1.12700001 0.7385,1.70900001 -0.1202,0.479 -0.215,2.709 -0.3391,7.969 -0.0452,1.9150002 -0.1591,3.6870002 -0.2533,3.9380002 -0.229,0.609 -0.4024,7.198 -0.1981,7.529 0.1011,0.163 0.4276,0.253 0.8811,0.241 0.6838,-0.018 0.7263,0.012 0.8356,0.594 0.1298,0.692 0.0109,2.325 -0.1834,2.519 -0.0703,0.07 -1.2298,0.15 -2.5767,0.177 -1.3470004,0.026 -2.5296004,0.076 -2.6281004,0.11 -0.0984,0.034 -0.2998,0.022 -0.4475,-0.027 z m 51.1501004,-3.92 c -0.5827,-0.152 -0.2798,-1.308 0.3428,-1.308 0.3244,0 0.6365,0.667 0.5054,1.081 -0.1107,0.348 -0.2463,0.385 -0.8482,0.227 z m 7.1452,-8.588 c -0.0656,-0.065 -0.1193,-0.43 -0.1193,-0.811 0,-0.816 0.376,-1.06 0.9017,-0.585 0.4458,0.404 0.444,0.707 -0.0067,1.158 -0.3755,0.375 -0.5769,0.437 -0.7757,0.238 z" style="stroke-width:0.00331545"/>
</svg>
