<?xml version="1.0" encoding="utf-8"?>
<svg xmlns="http://www.w3.org/2000/svg" version="1.1" viewBox="0 0 53 16">
	<title>Runic glyph of the initial A. S.</title>
	<path d="m 42.456881,15.596 c -0.4097,-0.452 -0.4793,-0.902 -0.418,-2.7 0.0405,-1.187 0.1837,-2.363 0.3182,-2.614 0.347,-0.649 0.3034,-2.18 -0.0728,-2.556 -0.4697,-0.47 -1.1256,-0.387 -1.6669,0.211 -0.2634,0.291 -0.6167,0.53 -0.7852,0.53 -0.1685,0 -0.6486,0.357 -1.0668,0.793 -0.4183,0.437 -0.9027,0.794 -1.0765,0.794 -0.1738,0 -0.6338,0.417 -1.0223,0.926 -0.8857,1.161 -1.8876,1.262 -2.2801,0.23 -0.1649,-0.434 -0.1972,-2.303 -0.0856,-4.961 l 0.179,-4.265 0.9048,-0.86 c 0.5144,-0.488 1.1839,-0.859 1.5515,-0.859 0.6342,0 0.6443,0.034 0.5233,1.785 -0.0679,0.983 -0.1969,2.411 -0.2867,3.175 -0.1493,1.271 -0.1178,1.39 0.3707,1.39 0.2936,0 1.0459,-0.342 1.6716,-0.759 0.6258,-0.417 1.5745,-0.899 2.1083,-1.072 0.5338,-0.172 1.1616,-0.605 1.3951,-0.961 0.5752,-0.878 1.6621,-0.875 1.9967,0.005 0.1515,0.399 0.1594,2.156 0.0202,4.517 -0.1254,2.125 -0.1641,4.568 -0.0861,5.428 0.1574,1.735 -0.1395,2.367 -1.1128,2.367 -0.3235,0 -0.8093,-0.245 -1.0796,-0.543 z m -26.3107,-3.286 c -0.171,-0.449 -0.2074,-1.945 -0.0976,-4 0.118,-2.208 0.0854,-3.283 -0.0994,-3.283 -0.1513,0 -1.408,1.128 -2.7928,2.506 -2.847,2.833 -3.2500996,2.889 -2.8564,0.398 0.2052,-1.297 0.3658,-1.55 1.7778,-2.798 0.8537,-0.755 1.9699,-1.802 2.4804,-2.327 0.5106,-0.524 1.0319,-0.954 1.1586,-0.954 0.1266,0 0.6915,-0.417 1.2553,-0.926 0.5637,-0.509 1.2062,-0.926 1.4276,-0.926 0.6684,0 0.9226,1.143 0.5992,2.694 -0.1613,0.774 -0.3192,3.147 -0.3508,5.274 -0.0316,2.127 -0.165,4.06 -0.2965,4.295 -0.1315,0.235 -0.6201,0.503 -1.0857,0.596 -0.748,0.15 -0.8785,0.086 -1.1197,-0.549 z M 0.99608136,9.964 c -1.1065,-0.984 -1.3119,-2.031 -0.5118,-2.607 0.2643,-0.19 0.55390004,-0.543 0.64360004,-0.784 0.0898,-0.241 0.527,-0.518 0.9718,-0.615 0.4447,-0.098 0.8721,-0.281 0.9497,-0.406 0.2504,-0.406 1.717,0.285 1.717,0.808 0,0.268 0.1191,0.561 0.2646,0.651 0.1455,0.09 0.2646,0.687 0.2646,1.327 0,2.462 -2.3582,3.354 -4.29950004,1.626 z M 26.558181,10.15 c -0.0961,-0.271 -0.41,-0.754 -0.6975,-1.074 -0.2875,-0.32 -0.6111,-1.034 -0.7191,-1.588 -0.1079,-0.553 -0.2419,-1.165 -0.2977,-1.36 -0.0558,-0.195 0.21,-0.593 0.5906,-0.885 0.6365,-0.488 0.7535,-0.499 1.4559,-0.136 1.5237,0.788 1.7565,1.28 1.5957,3.375 -0.1578,2.055 -0.2802,2.363 -0.752,1.891 -0.2223,-0.222 -0.4024,-0.227 -0.6539,-0.018 -0.2619,0.217 -0.3901,0.167 -0.522,-0.205 z m 24.0295,-0.97 c -0.7605,-0.81 -0.7293,-1.551 0.1074,-2.545 0.8117,-0.965 1.5517,-1.036 2.2584,-0.219 1.2788,1.479 1.233,2.708 -0.1111,2.978 -0.4663,0.094 -1.0344,0.222 -1.2625,0.285 -0.228,0.064 -0.6745,-0.161 -0.9922,-0.499 z" style="stroke-width:0.0700043"/>
</svg>
